<?xml version="1.0" standalone="no"?>
<!DOCTYPE svg PUBLIC "-//W3C//DTD SVG 20010904//EN"
 "http://www.w3.org/TR/2001/REC-SVG-20010904/DTD/svg10.dtd">
<svg version="1.0" xmlns="http://www.w3.org/2000/svg"
 width="256.000000pt" height="256.000000pt" viewBox="0 0 256.000000 256.000000"
 preserveAspectRatio="xMidYMid meet">

<g transform="translate(0.000000,256.000000) scale(0.100000,-0.100000)"
fill="#000000" stroke="none">
<path d="M865 2466 c-4 -48 -6 -89 -4 -91 2 -1 243 -5 534 -6 l530 -4 3 88 3
87 -424 0 c-233 0 -471 3 -529 6 l-106 7 -7 -87z"/>
<path d="M545 2454 c-210 -94 -226 -104 -204 -130 20 -24 407 -214 423 -208
10 4 15 51 21 204 4 109 4 203 0 209 -13 21 -53 9 -240 -75z"/>
<path d="M2000 2325 l0 -215 70 0 c134 0 160 34 160 210 0 176 -32 220 -162
220 l-68 0 0 -215z"/>
<path d="M860 2200 l0 -90 535 0 536 0 -3 88 -3 87 -532 3 -533 2 0 -90z"/>
<path d="M345 2021 c-85 -21 -150 -75 -187 -156 l-23 -50 0 -660 0 -660 502
-5 c496 -5 503 -5 524 -26 11 -12 24 -37 28 -55 l7 -34 86 -3 86 -3 6 34 c3
19 18 45 32 58 l26 24 496 5 497 5 0 660 0 660 -24 52 c-26 58 -80 113 -138
140 -35 17 -100 18 -963 20 -509 0 -938 -2 -955 -6z m1792 -101 c65 -39 63
-19 63 -657 0 -549 -1 -579 -19 -607 -10 -15 -32 -37 -47 -47 -28 -18 -63 -19
-853 -19 -819 0 -824 0 -858 21 -65 41 -63 18 -63 654 0 636 -2 616 63 655 31
19 56 20 857 20 801 0 826 -1 857 -20z"/>
<path d="M472 1860 c-12 -5 -27 -21 -32 -36 -6 -16 -9 -191 -8 -466 l3 -440
262 221 c147 124 271 221 282 221 11 0 103 -70 205 -155 l186 -155 236 155
c129 85 244 155 254 155 13 0 64 -52 142 -141 l123 -141 3 360 c1 221 -2 370
-8 386 -5 15 -21 31 -35 36 -34 13 -1581 12 -1613 0z m913 -90 c20 -12 48 -38
63 -58 24 -31 27 -44 27 -108 0 -81 -11 -104 -78 -157 -65 -53 -180 -50 -244
6 -117 103 -85 281 62 336 43 16 129 6 170 -19z"/>
<path d="M1214 1701 c-84 -51 -63 -184 33 -210 94 -26 185 67 149 153 -28 68
-118 96 -182 57z"/>
<path d="M705 1044 l-270 -227 0 -58 c0 -102 -56 -94 650 -97 338 -1 615 1
614 5 0 8 -702 596 -717 601 -4 1 -129 -100 -277 -224z"/>
<path d="M1643 1137 c-112 -72 -203 -135 -203 -139 0 -4 89 -82 197 -173 l197
-165 110 0 c61 0 121 3 134 6 40 11 52 52 52 177 l0 114 -137 156 c-75 87
-139 157 -142 157 -3 0 -97 -60 -208 -133z"/>
<path d="M70 407 c-13 -7 -35 -28 -47 -46 -20 -30 -23 -46 -23 -143 0 -115 8
-145 50 -183 22 -20 37 -20 1231 -20 l1209 0 32 33 33 32 3 119 c4 141 -9 184
-64 207 -45 19 -1013 21 -1032 2 -7 -7 -12 -32 -12 -55 0 -49 -21 -97 -45
-107 -9 -3 -67 -6 -129 -6 -105 0 -114 2 -134 23 -17 18 -22 36 -22 74 0 89
36 83 -528 83 -378 0 -503 -3 -522 -13z"/>
</g>
</svg>
